/* XPM */
static char *adb2dac1fbbf418fabacc41a4da15f61PphBXzjY9fFAIu3w[] = {
/* columns rows colors chars-per-pixel */
"64 64 237 2 ",
"   c #000002",
".  c #090000",
"X  c #03040C",
"o  c #09060E",
"O  c #05090E",
"+  c #0A090E",
"@  c #10010A",
"#  c #040610",
"$  c #0A0710",
"%  c #060912",
"&  c #0B0C13",
"*  c #0C0F18",
"=  c #130B13",
"-  c #1C0E15",
";  c #0C1116",
":  c #0D1219",
">  c #121116",
",  c #1B1117",
"<  c #13131A",
"1  c #1C131B",
"2  c #151A1F",
"3  c #1B191E",
"4  c #210007",
"5  c #260D17",
"6  c #230E18",
"7  c #350C17",
"8  c #23141C",
"9  c #2B131C",
"0  c #22191E",
"q  c #2A191E",
"w  c #33131C",
"e  c #3C171E",
"r  c #341A1E",
"t  c #1E201C",
"y  c #0F172D",
"u  c #181723",
"i  c #141A23",
"p  c #1B1B24",
"a  c #1A1D29",
"s  c #241621",
"d  c #231C23",
"f  c #291A24",
"g  c #2A1C24",
"h  c #351422",
"j  c #321B23",
"k  c #3B1B23",
"l  c #381826",
"z  c #3C1A29",
"x  c #1B2027",
"c  c #1C2A36",
"v  c #2B2225",
"b  c #24232B",
"n  c #222629",
"m  c #2C242B",
"M  c #2B292E",
"N  c #322225",
"B  c #33242C",
"V  c #3A262C",
"C  c #342A2D",
"Z  c #262432",
"A  c #242B33",
"S  c #2B2C34",
"D  c #2D2F39",
"F  c #382733",
"G  c #342B33",
"H  c #3B2C34",
"J  c #2C3235",
"K  c #263439",
"L  c #2C333A",
"P  c #353537",
"I  c #34353B",
"U  c #3B333B",
"Y  c #3C393E",
"T  c #41141B",
"R  c #461A26",
"E  c #611B23",
"W  c #47242A",
"Q  c #562529",
"!  c #492734",
"~  c #412B32",
"^  c #582A35",
"/  c #433136",
"(  c #44353B",
")  c #4A353C",
"_  c #423A3C",
"`  c #4B383C",
"'  c #593338",
"]  c #642A36",
"[  c #67393E",
"{  c #713434",
"}  c #46433D",
"|  c #71433E",
" . c #1E1E59",
".. c #1E3645",
"X. c #2A3845",
"o. c #353746",
"O. c #3B3B43",
"+. c #3B3E49",
"@. c #323B53",
"#. c #4E3640",
"$. c #443B42",
"%. c #4B3C43",
"&. c #523D44",
"*. c #563E47",
"=. c #652A42",
"-. c #6E3A46",
";. c #793A49",
":. c #783953",
">. c #37454A",
",. c #264252",
"<. c #344A53",
"1. c #384855",
"2. c #474549",
"3. c #45454C",
"4. c #4D424A",
"5. c #594345",
"6. c #53434B",
"7. c #5A454B",
"8. c #534A4D",
"9. c #5C4B4E",
"0. c #49514F",
"q. c #5A544C",
"w. c #444B53",
"e. c #4C4C54",
"r. c #444658",
"t. c #574953",
"y. c #554B52",
"u. c #5C4C53",
"i. c #4A5357",
"p. c #5C5457",
"a. c #53555B",
"s. c #5C545B",
"d. c #66474A",
"f. c #79494A",
"g. c #665649",
"h. c #715847",
"j. c #634D53",
"k. c #684C54",
"l. c #764A53",
"z. c #625354",
"x. c #63545B",
"c. c #675558",
"v. c #6A5A5E",
"b. c #775758",
"n. c #6C6255",
"m. c #495866",
"M. c #575A65",
"N. c #5C5B63",
"B. c #525773",
"V. c #665763",
"C. c #645A63",
"Z. c #6A5C64",
"A. c #745766",
"S. c #5E6369",
"D. c #4E6C74",
"F. c #516A73",
"G. c #686667",
"H. c #63636D",
"J. c #6B636C",
"K. c #72656E",
"L. c #74696D",
"P. c #68716A",
"I. c #777268",
"U. c #6A6777",
"Y. c #6C6A74",
"T. c #746973",
"R. c #736C75",
"E. c #766E79",
"W. c #64727D",
"Q. c #6A747C",
"!. c #75757A",
"~. c #74747B",
"^. c #904555",
"/. c #8A5159",
"(. c #9E7C5F",
"). c #954866",
"_. c #845D65",
"`. c #895A62",
"'. c #924F73",
"]. c #935477",
"[. c #8C6A6F",
"{. c #95656A",
"}. c #977377",
"|. c #A5767C",
" X c #AE837C",
".X c #5F7381",
"XX c #767783",
"oX c #7C7B83",
"OX c #75798C",
"+X c #975881",
"@X c #AA5D8A",
"#X c #837D85",
"$X c #827E8A",
"%X c #9B7284",
"&X c #A7698A",
"*X c #A96897",
"=X c #7B828A",
"-X c #6D8A92",
";X c #7C9FAE",
":X c #86848C",
">X c #88888A",
",X c #96918B",
"<X c #848690",
"1X c #8C8C94",
"2X c #918C94",
"3X c #8C9298",
"4X c #94939B",
"5X c #98989C",
"6X c #A4888C",
"7X c #AF9692",
"8X c #A8A893",
"9X c #8694A3",
"0X c #999BA4",
"qX c #9CA4A7",
"wX c #A4A5AC",
"eX c #A6ABAD",
"rX c #B3AFAC",
"tX c #A7ABB1",
"yX c #AFB8B9",
"uX c #B3B6B8",
"iX c #C59996",
"pX c #C0A199",
"aX c #D0B3AC",
"sX c #BDC0BF",
"dX c #B4BAC5",
"fX c #BBC2C7",
"gX c #C7C8C7",
"hX c #D0D1CF",
"jX c #C3CDD4",
"kX c #CCD2D3",
"lX c #D7D8D9",
"zX c #F3EFC8",
"xX c #E8EAEA",
"cX c #EDFFF4",
"vX c #F4F4F5",
"bX c #FDFDFD",
"nX c white",
/* pixels */
"nXnXnXnXnXnXnXnXnXnXnXnXnXnXnXnXnXnXnXnXnXnXnXnXnXnXnXnXnXnXnXnXnXnXnXnXnXnXnXnXnXnXnXnXnXnXnXnXnXnXnXnXnXnXnXnXnXnXnXnXnXnXnXnX",
"nXnXnXnXnXnXnXnXnXnXnXnXnXnXnXnXnXnXnXnXnXnXnXnXnXnXnXnXnXxXqXQ.w.i.XXqXkXnXnXnXnXnXnXnXnXnXnXnXnXnXnXnXnXnXnXnXnXnXnXnXnXnXnXnX",
"nXnXnXnXnXnXnXnXnXnXnXnXnXnXnXnXnXnXnXnXnXnXnXnXnXnXxX3Xo.c A A A K K J x K 3XnXnXnXnXnXnXnXnXnXnXnXnXnXnXnXnXnXnXnXnXnXnXnXnXnX",
"nXnXnXnXnXnXnXnXnXnXnXnXnXnXnXnXnXnXnXnXnXnXnXnXfXm.c A J S A J J S A I J S A x 5XnXnXnXnXnXnXnXnXnXnXnXnXnXnXnXnXnXnXnXnXnXnXnX",
"nXnXnXnXnXnXnXnXnXnXnXnXnXnXnXnXnXnXnXnXnXnXvXM.K L L A A S A S D S D S S S I S A 0.nXnXnXnXnXnXnXnXnXnXnXnXnXnXnXnXnXnXnXnXnXnX",
"nXnXnXnXnXnXnXnXnXnXnXnXnXnXnXnXnXnXnXnXnXuXA K P A S I b b b S S S O.I S I D L L I A lXnXnXnXnXnXnXnXnXnXnXnXnXnXnXnXnXnXnXnXnX",
"nXnXnXnXnXnXnXnXnXnXnXnXnXnXnXnXnXnXnXnX~.i A p b O.Y U y.N.s.a.e.M.H.H.Y.XXXXU.U.m.N.b eXnXnXnXnXnXnXnXnXnXnXnXnXnXnXnXnXnXnXnX",
"nXnXnXnXnXnXnXnXnXnXnXnXnXnXnXnXnXnXnXS.x 1.+.e.s.c.v.C.x.C.N.M.N.S.Y.oXoX$X<X4X5X0X0XOX@.=XnXnXnXnXnXnXnXnXnXnXnXnXnXnXnXnXnXnX",
"nXnXnXnXnXnXnXnXnXnXnXnXnXnXnXnXnXnX>.o.=X=XR.C.x.j.z.v.V.C.N.a.M.N.Y.E.oXoX:X:X1X0XtXfXdXB.P.nXnXnXnXnXnXnXnXnXnXnXnXnXnXnXnXnX",
"nXnXnXnXnXnXnXnXnXnXnXnXnXnXnXnXnXo.X.9XOXJ.G.v.v.Z.c.x.x.C.C.C.J.Y.R.E.oXoXoX:X1X4X0XwXfXjXr.>XnXnXnXnXnXnXnXnXnXnXnXnXnXnXnXnX",
"nXnXnXnXnXnXnXnXnXnXnXnXnXnXnXnXa.o.9XXXN.s.s.u.u.z.c.x.p.C.C.Z.J.T.E.E.oX#X$X$X:X1X4X5XwXyXkXr.sXnXnXnXnXnXnXnXnXnXnXnXnXnXnXnX",
"nXnXnXnXnXnXnXnXnXnXnXnXnXnXnXeX: =XQ.M.a.y.6.8.6.y.8.p.p.s.x.Z.Z.J.J.R.E.~.~.oXoXoX:X2X4X0XdXwXA nXnXnXnXnXnXnXnXnXnXnXnXnXnXnX",
"nXnXnXnXnXnXnXnXnXnXnXnXnXnXnXi +.Q.M.e.2.3.2.2.%.4.6.8.u.p.x.c.A.Z.J.J.J.R.R.~.~.oXoX$X2X5XeXfXr.1XnXnXnXnXnXnXnXnXnXnXnXnXnXnX",
"nXnXnXnXnXnXnXnXnXnXnXnXnXnX5Xi w.M.e.3.2.2.Y Y _ $.4.4.6.6.u.j.c.x.x.C.C.Z.T.R.~.R.E.~.#X1X4XtXXXJ nXnXnXnXnXnXnXnXnXnXnXnXnXnX",
"nXnXnXnXnXnXnXnXnXnXnXnXnXnXA a w.i.3.3.Y Y U U U _ _ 4.4.4.6.y.u.u.s.x.x.Z.K.T.R.T.T.E.E.#X1X0X<Xo.tXnXnXnXnXnXnXnXnXnXnXnXnXnX",
"nXnXnXnXnXnXnXnXnXnXnXnXnXkX% b >.3.O.Y G H G G G U _ $.4.6.8.y.u.u.y.y.p.C.J.J.J.K.K.J.L.T.~.:X3XO.S.nXnXnXnXnXnXnXnXnXnXnXnXnX",
"nXnXnXnXnXnXnXnXnXnXnXnXnX~.2 Z Y I U G G G G C G G ( ( 6.6.6.6.9.8.8.y.y.u.V.x.Z.Z.v.Z.Z.Z.G.~.oXa.A nXnXnXnXnXnXnXnXnXnXnXnXnX",
"nXnXnXnXnXnXnXnXnXnXnXnXnXA i b P S S M m m m C G V / ( *.6.6.6.y.y.u.6.6.y.u.c.j.j.c.z.x.x.x.L.~.e.A kXnXnXnXnXnXnXnXnXnXnXnXnX",
"nXnXnXnXnXnXnXnXnXnXnXnXnX# p b S v v g v m B v m F / ( %.%.6.6.6.9.9.u.x.u.j.j.9.j.7.u.z.x.u.z.R.N.S 3XnXnXnXnXnXnXnXnXnXnXnXnX",
"nXnXnXnXnXnXnXnXnXnXnXnXlX# i M m v d g v v v m B V ~ ) ) #.#.*.6.5.7.j.j.j.k.z.j.u.u.9.9.7.u.u.Z.H.I w.nXnXnXnXnXnXnXnXnXnXnXnX",
"nXnXnXnXnXnXnXnXnXnXnXnXuXX 3 S b d d d d g N B V H ) ) ) #.*.*.%.*.5.9.7.j.k.k.c.j.c.j.9.9.u.z.x.~.+.O.nXnXnXnXnXnXnXnXnXnXnXnX",
"nXnXnXnXnXnXnXnXnXnXnXnXeXO b M v d d d g g N ~ ~ ~ ~ ( ) ( ` $.%.` %.&.5.d.d.b.b.b.b.g.c.z.j.j.s.oXI M.nXnXnXnXnXnXnXnXnXnXnXnX",
"nXnXnXnXnXnXnXnXnXnXnXnX5XX b b d Z +.w.m.m.B.O.+.g.h.y.r.o._ $._ %.%.%.$.3.e.b.b.W.XXXXXXY.U.U.J.~.a.H.nXnXnXnXnXnXnXnXnXnXnXnX",
"nXnXnXnXnXnXnXnXnXnXnXnX4XO M d w.m.<.<.X.K K i c I.h.G.-X;XF.G _ $.O.L D.<.w.g.g.>.,.<.<.F.D.-X-X<Xi.~.nXnXnXnXnXnXnXnXnXnXnXnX",
"nXnXnXnXnXnXnXnXnXnXnXnXfX  p O.+ X o X O o X O & # X X X K -X.Xo.I y @.: X # X % J 1.0.>X#       N.o.tXnXnXnXnXnXnXnXnXnXnXnXnX",
"nXnXnXnXnXnXnXnXnXnXnXnXvXy 0.(.e t q.X + + & & # X & & + X % -X,XX.B.w.y  .% % 2 X p p J p + z.} 7XjXxXnXnXnXnXnXnXnXnXnXnXnXnX",
"nXnXnXnXnXnXnXnXnXnXnXnXnXX.P f.-.$.  & + + % X B.OXX % % X 4.j.k.c.c.  o.eXX & & & & + O p & < s }.cXyXxXnXnXnXnXnXnXnXnXnXnXnX",
"nXnXnXnXnXnXnXnXnXnXnX~.R.b 2 > i A O & O + O % i Z X % O X B /.b._.`.X % X % % & & < & & + + p A o.a.}.5.nXnXnXnXnXnXnXnXnXnXnX",
"nXnXnXnXnXnXnXnXnXnXnX. 9 3 1.D O X & $ O O O O O X # % O   ,XzXG _ zX> X O O O + % * % * & $ X ..W.~.' e nXnXnXnXnXnXnXnXnXnXnX",
"nXnXnXnXnXnXnXnXnXnXnX4 7 - w.A & O o O O O o & O O O O O   8Xv = X q.q.X % % % & % O % % % & O ,.Q.oX7 d.nXnXnXnXnXnXnXnXnXnXnX",
"nXnXnXnXnXnXnXnXnXnXnXj w 5 O.S & % $ o O & O O O O O O % X n.@ ) H   I.X O % % % O % % & & & O ,.Q.E.^ b.nXnXnXnXnXnXnXnXnXnXnX",
"nXnXnXnXnXnXnXnXnXnXnXx.w r P S = # = $ o o o O $ o O O X n C j k.k.- } 0 o % O O % # % # & & o X.Q.L.] rXnXnXnXnXnXnXnXnXnXnXnX",
"nXnXnXnXnXnXnXnXnXnXnXtX5 7 D O.< # = = $ o + o $ $ + $ o P - ! _._.' o ` o $ $ + + + $ $ $ = & 2 =X6.Q nXnXnXnXnXnXnXnXnXnXnXnX",
"nXnXnXnXnXnXnXnXnXnXnXnX9 T G O.d O = = = = = = = = = $ = C j -.}.}.f.r d 1 = = $ $ = = = = 1 $ d oX#.[.nXnXnXnXnXnXnXnXnXnXnXnX",
"nXnXnXnXnXnXnXnXnXnXnXnX#Xk H Y U & a = = = = = = = = & * N ^ l.}.6X`.| = * = = = = = = = = > i 8.R.V.7XnXnXnXnXnXnXnXnXnXnXnXnX",
"nXnXnXnXnXnXnXnXnXnXnXnXhXw G U H H 1 : & & & = * < : O q W [ f._.}.}.`.| r 2 p p p p a p a * 4.L.Y.s.gXnXnXnXnXnXnXnXnXnXnXnXnX",
"nXnXnXnXnXnXnXnXnXnXnXnXnXV S H B B N 8 , p 1 1 1 1 1 9 [ W Q [ _.f.{ f.[.{.r $ = = 1 > - 6 &.b.c.J.Q.xXnXnXnXnXnXnXnXnXnXnXnXnX",
"nXnXnXnXnXnXnXnXnXnXnXnXnX5Xd m f q 9 9 j F H m g d 1 R R l R Q ] E E Q { ;.Q 8 s g F ~ ~ ! ^ ' *.z.N.hXnXnXnXnXnXnXnXnXnXnXnXnX",
"nXnXnXnXnXnXnXnXnXnXnXnXnX2X0 0 8 9 9 9 z F g d d 3 1 e 5 % = R E R 6 $ 5 T w q s d B V V R R Q / #.w.lXnXnXnXnXnXnXnXnXnXnXnXnX",
"nXnXnXnXnXnXnXnXnXnXnXnXnX2X> 8 - 5 9 9 f g f f 1 1 1 = = = = 8 R 9 8 1 = q V r f 0 f j h e e r ~ N >.gXnXnXnXnXnXnXnXnXnXnXnXnX",
"nXnXnXnXnXnXnXnXnXnXnXnXnX5X$ 1 , - 6 9 q f 8 1 1 8 8 8 0 d b a d d d g m B j N j q 1 8 9 9 9 9 N q S ~.nXnXnXnXnXnXnXnXnXnXnXnX",
"nXnXnXnXnXnXnXnXnXnXnXnXnXuXX , , - 6 9 9 8 1 1 8 8 1 1 1 2 : > d 2 ; 3 d d N N N f 0 8 8 1 - , g q x w.nXnXnXnXnXnXnXnXnXnXnXnX",
"nXnXnXnXnXnXnXnXnXnXnXnXnXvX  , - , - 6 8 8 1 0 1 < > > > , g B F C / ( B 0 1 3 3 v m s 0 8 1 8 N d * w.nXnXnXnXnXnXnXnXnXnXnXnX",
"nXnXnXnXnXnXnXnXnXnXnXnXnXnX; = 1 - 6 - 1 s s 1 + - 9 k k W ^ d.l.d.-.[ [ ' ^ k & < m d f f 8 s g u * 0.nXnXnXnXnXnXnXnXnXnXnXnX",
"nXnXnXnXnXnXnXnXnXnXnXnXnXnXa.X - - 6 - 1 3 1 $ - 8 9 w h l R ! ! R R l h w 9 1 = & < 0 g g s d p i * P.nXnXnXnXnXnXnXnXnXnXnXnX",
"nXnXnXnXnXnXnXnXnXnXnXnXnXnX5X  = = 8 0 0 d < = = x A ^ ] ] -.;.=.;.^.).^.^.F a = = < d g d 3 < > i % xXnXnXnXnXnXnXnXnXnXnXnXnX",
"nXnXnXnXnXnXnXnXnXnXnXnXnXnXvX  & $ , 3 3 3 > < d = >.z.`.|.7XaX{.aXpXiX Xb.= j d > < d d < < = < % i.nXnXnXnXnXnXnXnXnXnXnXnXnX",
"nXnXnXnXnXnXnXnXnXnXnXnXnXnXnXL % & & = 1 1 & > s j l ! *.A.6X7X%X7X6X[.l.=.' ' d > > 1 < < : > > X nXnXnXnXnXnXnXnXnXnXnXnXnXnX",
"nXnXnXnXnXnXnXnXnXnXnXnXnXnXnX5X  & & & & > * < 0 j ~ :.-.A.].%X&X].&X&X&X`.d.V u ; 2 u > : & >   tXnXnXnXnXnXnXnXnXnXnXnXnXnXnX",
"nXnXnXnXnXnXnXnXnXnXnXnXnXnXnXnXO O & & & & & 2 g q h =.:.).+X*X*X@X@X@X).d.! N 3 : : : * * : X o.nXnXnXnXnXnXnXnXnXnXnXnXnXnXnX",
"nXnXnXnXnXnXnXnXnXnXnXnXnXnXnXnXlX  & & & & & > p s 9 h ^ :.'.'.'.).).;.^ W N v < ; : * * * *   nXnXnXnXnXnXnXnXnXnXnXnXnXnXnXnX",
"nXnXnXnXnXnXnXnXnXnXnXnXnXnXnXnXnX~.  & & & & * 2 3 8 6 8 f z z z z z 9 8 q G m ; * ; * * :   wXnXnXnXnXnXnXnXnXnXnXnXnXnXnXnXnX",
"nXnXnXnXnXnXnXnXnXnXnXnXnXnXnXnXnXnXi X & & & & ; 3 0 1 - = & & & = = , f C H p ; : ; * * X 3.nXnXnXnXnXnXnXnXnXnXnXnXnXnXnXnXnX",
"nXnXnXnXnXnXnXnXnXnXnXnXnXnXnXnXnXnXvX  % & * & * > d 0 8 1 1 ; > d g F H / d ; * * : * % < nXnXnXnXnXnXnXnXnXnXnXnXnXnXnXnXnXnX",
"nXnXnXnXnXnXnXnXnXnXnXnXnXnXnXnXnXnXnXuX  & * & & & p v v d H m H ( &.` ( m < : % : : ;   vXnXnXnXnXnXnXnXnXnXnXnXnXnXnXnXnXnXnX",
"nXnXnXnXnXnXnXnXnXnXnXnXnXnXnXnXnXnXnXnXR.  * * * * ; 3 d p m m ( H H / M 2 * : ; ; :   gXnXnXnXnXnXnXnXnXnXnXnXnXnXnXnXnXnXnXnX",
"nXnXnXnXnXnXnXnXnXnXnXnXnXnXnXnXnXnXnXnXnXO.X * & * * > 1 > p p 1 d d p > ; & * & ;   <XnXnXnXnXnXnXnXnXnXnXnXnXnXnXnXnXnXnXnXnX",
"nXnXnXnXnXnXnXnXnXnXnXnXnXnXnXnXnXnXnXnXnXnX2 X & ; * & & & > > = > : ; ; * * * & X Y.nXnXnXnXnXnXnXnXnXnXnXnXnXnXnXnXnXnXnXnXnX",
"nXnXnXnXnXnXnXnXnXnXnXnXnXnXnXnXnXnXnXnXnXnXnX  X % & & * & & & & & * * * * % *   H.nXnXnXnXnXnXnXnXnXnXnXnXnXnXnXnXnXnXnXnXnXnX",
"nXnXnXnXnXnXnXnXnXnXnXnXnXnXnXnXnXnXnXnXnXnXnXvXX X & * * & & & & & & & & * *   a.nXnXnXnXnXnXnXnXnXnXnXnXnXnXnXnXnXnXnXnXnXnXnX",
"nXnXnXnXnXnXnXnXnXnXnXnXnXnXnXnXnXnXnXnXnXnXnXnXnXp   X * * & % % & & & ; X   N.nXnXnXnXnXnXnXnXnXnXnXnXnXnXnXnXnXnXnXnXnXnXnXnX",
"nXnXnXnXnXnXnXnXnXnXnXnXnXnXnXnXnXnXnXnXnXnXnXnXnXnXuXb   X X O O % & X   2 lXnXnXnXnXnXnXnXnXnXnXnXnXnXnXnXnXnXnXnXnXnXnXnXnXnX",
"nXnXnXnXnXnXnXnXnXnXnXnXnXnXnXnXnXnXnXnXnXnXnXnXnXnXnXnXlX~.D X       P 5XnXnXnXnXnXnXnXnXnXnXnXnXnXnXnXnXnXnXnXnXnXnXnXnXnXnXnX",
"nXnXnXnXnXnXnXnXnXnXnXnXnXnXnXnXnXnXnXnXnXnXnXnXnXnXnXnXnXnXnXnXnXnXnXnXnXnXnXnXnXnXnXnXnXnXnXnXnXnXnXnXnXnXnXnXnXnXnXnXnXnXnXnX"
};
