/* XPM */
static char *e10eddf2ea5d4aa9c552dd3aa4b81307oi9o0ymYUwX6p1ay[] = {
/* columns rows colors chars-per-pixel */
"32 32 70 1 ",
"  c #2F1A2F",
". c #311A2F",
"X c #361E32",
"o c #391E33",
"O c #372032",
"+ c #3B2333",
"@ c #432536",
"# c #452937",
"$ c #492A37",
"% c #472938",
"& c #4C2C39",
"* c #512E3A",
"= c #4B3137",
"- c #4E313A",
"; c #4F383C",
": c #54333B",
"> c #58363C",
", c #553B3D",
"< c #5A393D",
"1 c #54403F",
"2 c #5C413E",
"3 c #62433E",
"4 c #5D3E41",
"5 c #623E40",
"6 c #5C4342",
"7 c #634341",
"8 c #6B4741",
"9 c #634D45",
"0 c #6E4C42",
"q c #704E42",
"w c #6B5247",
"e c #6D5549",
"r c #735144",
"t c #785646",
"y c #7A5847",
"u c #71574B",
"i c #745B4B",
"p c #765C4C",
"a c #7B5A48",
"s c #7D5B49",
"d c #785C4A",
"f c #785C4B",
"g c #7E5D4B",
"h c #7F5E4A",
"j c #785F4D",
"k c #7B624F",
"l c #7C614E",
"z c #7E644E",
"x c #7E6450",
"c c #805E4A",
"v c #81614B",
"b c #82614C",
"n c #84634C",
"m c #80664F",
"M c #84644C",
"N c #89674E",
"B c #87684E",
"V c #89684F",
"C c #806650",
"Z c #836850",
"A c #856A52",
"S c #876D53",
"D c #866E54",
"F c #8A6C52",
"G c #896E54",
"H c #8D7356",
"J c #947555",
"K c #917858",
"L c #977C5A",
"P c #997E5B",
/* pixels */
"9e+jlfCkeAlzmfzxZxwwkF2#CSClkepO",
"l79JrrtbMcttyrttsMMMby>iNhtrvVs$",
"w76h0qr00q0qqqr0q0000q>jh0rq0q8+",
"f7uv0qrqqqqrqqq00q0qqq>ua0qqqqq$",
"C3eMqqrqq0qqqqqqqqqqqq:6B0qqqqq:",
"Z76v000qq0q0qqq0qqq0qq>6h000qrq:",
",&+<:$:<$#&:::*%#$>:>$%O$:&%$>:+",
"#fCGGSjCikAlA<.eSwlflpAkjAlliCC+",
"evrtyyqrhytrr7&PMyrrrhthsrrscy0@",
"uhqq0rq0000qq0:Aqqqqq00qq0q0008#",
"wbqrqqqqqqqqq0:Mrqqqqq00qqqqqq0&",
"frqqqqqqqqqq00<Aqqq0qqqqqqqqqq0$",
"ztrqqqqqqqqqq0&j0qrqq0880080qq8&",
"etqrqqqqqqq0qq+X$::&$%#&:$o@&:&O",
"9v0qqqqqqqqqqq$X*&::#9HlljppkHf#",
"iv0qqqqqqqq0qq&$qq0nDLh0rrsyyt0@",
"Ahqqqqqqqqq0q0&:r08cpb0qrq0qq00%",
"lyqqqqqq0qqqq0$:q0ttlmrqqqqrq0q&",
"frqqqqqqq0q0qq&>0rrrfztqqqqq0r2 ",
"lt0qqqqqq0qq00$:qq0rAAqqqqrr0,OO",
"Svqqrrrrqqqrrq##000vimrrq3==+@%%",
",7::<&:<>::<<:X#qqqtwjr0qh7@@$&#",
"O9i769ijjpiuj9 :q00tjjrr0yJh7:*$",
"eMhFFMcbFMvyvc#:q0qrSbqqq0tMMr5:",
"zhq00000000000&&0r0rAAqrqq00yMF0",
"wv0qqqqqqrqqqq$&mAFh6jr0qqqq0qs7",
"ftqrqqqqqqqq0q@1HGKZ=hqqqqqqqq8#",
"ftqqqqqqqqqqq0$ScaMt4b0qqqqq0q8+",
"ltqqqq0qqq0qq0:Ar0q0<Frqq0qqqq0&",
"Cy0q0qqqqqqqq0-lrrq0,M0qqqqqqq0&",
"lh00qqrqq00qq0%xtq0q:0q88qq0000&",
"+-$$&$:-&%@&&$O;-&@$.O&@@&&$$$$O"
};
