/* XPM */
static char *_6d4161762464c1faef2457ddfe90499dpUFzL9GjNCWQKiD[] = {
/* columns rows colors chars-per-pixel */
"32 32 169 2 ",
"   c #470E02",
".  c #480E02",
"X  c #471102",
"o  c #4B1305",
"O  c #4D160A",
"+  c #511505",
"@  c #541B07",
"#  c #541B0A",
"$  c #5A1F0B",
"%  c #5B1F10",
"&  c #56200B",
"*  c #5C220C",
"=  c #572110",
"-  c #5F2510",
";  c #61250F",
":  c #612611",
">  c #642A14",
",  c #692E16",
"<  c #662E18",
"1  c #6A2E19",
"2  c #6B3216",
"3  c #663119",
"4  c #6D331B",
"5  c #753C14",
"6  c #763A1D",
"7  c #783A1C",
"8  c #763A20",
"9  c #783D22",
"0  c #7C431B",
"q  c #7C4227",
"w  c #82471A",
"e  c #844B1E",
"r  c #8A4B1E",
"t  c #8A501F",
"y  c #854E21",
"u  c #8A4E22",
"i  c #8D5325",
"p  c #8E5826",
"a  c #915524",
"s  c #945C24",
"d  c #9A5F26",
"f  c #925629",
"g  c #945B2A",
"h  c #9C5D2A",
"j  c #9B5F34",
"k  c #9D622B",
"l  c #9F682E",
"z  c #9A6331",
"x  c #9F6A32",
"c  c #A2672D",
"v  c #A4692D",
"b  c #AB6C2E",
"n  c #B06D2D",
"m  c #AB702F",
"M  c #B3712E",
"N  c #B8732D",
"B  c #A06331",
"V  c #A56B31",
"C  c #AC6E33",
"Z  c #A46739",
"A  c #A56E3F",
"S  c #AC6D3D",
"D  c #B26E32",
"F  c #AE7134",
"G  c #A4703F",
"H  c #A9733F",
"J  c #B37333",
"K  c #BA7633",
"L  c #B47937",
"P  c #BB7A36",
"I  c #B27639",
"U  c #B57A3A",
"Y  c #BB7B3B",
"T  c #C27D37",
"R  c #C27E39",
"E  c #C87F3A",
"W  c #AC7342",
"Q  c #B47640",
"!  c #B77A42",
"~  c #BD7E43",
"^  c #B77F4A",
"/  c #C07F44",
"(  c #BD813E",
")  c #C58236",
"_  c #C88337",
"`  c #C5823B",
"'  c #CB853C",
"]  c #CE893D",
"[  c #D0873D",
"{  c #D18A3D",
"}  c #BE8245",
"|  c #BD824C",
" . c #B88D51",
".. c #BF9066",
"X. c #C18445",
"o. c #CD8741",
"O. c #CD8A42",
"+. c #C2854B",
"@. c #C2894B",
"#. c #CB8B4C",
"$. c #D38D42",
"%. c #D88F40",
"&. c #D18F4E",
"*. c #CB934E",
"=. c #D59145",
"-. c #DA9445",
";. c #DD9847",
":. c #D5934B",
">. c #DA954A",
",. c #DD9A4C",
"<. c #CC8E52",
"1. c #CA8F5A",
"2. c #C59252",
"3. c #CF9254",
"4. c #CA925C",
"5. c #D39452",
"6. c #DC9C54",
"7. c #D5995A",
"8. c #DB9E5B",
"9. c #E29C4D",
"0. c #E19E53",
"q. c #DEA155",
"w. c #DCA25C",
"e. c #E5A04F",
"r. c #E4A255",
"t. c #E9A456",
"y. c #EAAA54",
"u. c #E4A45A",
"i. c #EAA75A",
"p. c #E5A85B",
"a. c #ECAB5C",
"s. c #F0AD5C",
"d. c #F1B15F",
"f. c #CB9561",
"g. c #D59F65",
"h. c #D89C64",
"j. c #D5A162",
"k. c #DBA361",
"l. c #DBA364",
"z. c #DDA764",
"x. c #DFA964",
"c. c #DAA56A",
"v. c #DDA76F",
"b. c #DDAD74",
"n. c #E1A562",
"m. c #E5AC67",
"M. c #ECAE63",
"N. c #F2AE62",
"B. c #E7B16B",
"V. c #ECB26C",
"C. c #F5B363",
"Z. c #F0B064",
"A. c #F8B664",
"S. c #FBB864",
"D. c #F6B769",
"F. c #F9B668",
"G. c #F3B86D",
"H. c #FABC6D",
"J. c #E5AA70",
"K. c #E8B372",
"L. c #E9B274",
"P. c #E8B474",
"I. c #EDBA77",
"U. c #E7B578",
"Y. c #E8BA7C",
"T. c #F4BA71",
"R. c #FBBD71",
"E. c #FCC176",
"W. c #FAC37A",
/* pixels */
" .I.z.w.4 ^ n.L.n.w.U.Y.w.8.8.8.8.K.x.<.* 3.u.k.P.w.w.U.w.8.r.2.",
"5.A.-.y.7 h p.,.$.i.C.>.=.$.$.$.$.-.d.V.* C i.-.:.$.=.Z.a.$.-.( ",
"U %.' r.6 u J _ ' $.] ' 0.K ) ' ' ' =.6.* h K ' ' ' ' ] J J r.Y ",
"g 9.$.u.8 0 P ' o.' M ' $.' ' r.K n r.B.* B 6.$.' ' K 6.) ) $.U ",
"V -.$.G.q u ` K M ,.o.' ' $.0.R Y R =.w.$ i Y r.t.' T $.{ $.[ U ",
"U { ' a.9 i F V :.>.$.J J o.:.` ' ] u.6.$ g v U ( 0.o.' ' M K *.",
"z J m q.6 0 s V U J C s c F F J F F Y 5.# i s c v U C k C c b V ",
"= : ; 4 # # * : * ; : # ; ; ; : : ; * 2 o $ * : : ; * & - : ; & ",
"..b.3.g.7.&.l.3.#.&.#.* Q 5.3.c.v.3.<.h.5.&.:.3.c.5.~ % +.5.5.| ",
"j.H.,.>.-.=.>.>.a.9.t.: V a.,.C.F.,.=.>.>.-.-.s.,.,.6.* I -.-.} ",
"U -.' ' ' 0.K b ] { r.: a Y ' $.$.' ' ,.J C ) $.' =.J.* k C J I ",
"J r.$.o.K o.` R ' r.T.: w Y ' ' 0.P ` $.' >.M ' ' =.8.* c ` ' Y ",
"F T ,.a.$.' ] ] ] a.M.- i O.' J J T ' ' o.$.) ' ] i.6.@ s r.{ Y ",
"I ' P P ,.$.o.' K o.r.: f J M Y ` ' o.' ' ' J ' o.>.6.* k Y t.Y ",
"z L s k U J J F V F q.: p s v J J F k m J J b F F Y 8.$ i V Y x ",
"# * $ * * $ * * * * , X @ @ $ * * * @ * * $ * * * * , . @ * $ # ",
"A X.$ j @.4.+.4.+./ ~ X.} } 4.f.+.! $ S +.f.4.| 4.X.~ X.+.4.X.W ",
"} C.1 d >.D.r.0.,.-.;.,.,.C.H.u.,.p.: C 9.R.E.D.r.,.;.>.,.R.S.O.",
"k p.1 5 P =.' ' ' ,.P D ' =.$.' 0.V.> a ' R $.=.' ' ' ) N $.-.Y ",
"@.W.4 0 F 6.t.{ M ] ' T ' r.' M O.p.: e J R ' M ' ' ' ' ) ' { U ",
"( C.4 e Y Y Y 0.o.' { [ ' Y 0.` ' V.> i C 0.{ ) r.6.J ' ] ] { Y ",
"I a.1 r ' E R Y J 6.=.' ' T Y ' u.M.: y ` =.{ ' Y Y R $.0.N ' Y ",
"z i.1 5 V J m s k J F d b C v C Y q.: i F d C C k s F J L v k k ",
"O : X X # @ @ + @ $ @ + @ @ @ @ # :   @ # o # @ @ @ # # # @ + O ",
"G } } X.1.f.+.X.~ = Z X.} 4.f.} } 4.@.X.f.} } X.I - ! } X.4.+.H ",
"X.9.9.N.a.r.,.,.a.< Z 9.9.r.H.F.9.r.,.;.p.C.9.9.u., } M.o.r.e.w.",
"J [ ' R :.{ ' 9.T.3 u ' ] 9.>.=.] ' ' ,.K $.' ] 6.> k :.:.' ] ` ",
"k 9.=.T P ' ] a.V.> a 0.Y Y ' ' ' K ' Y R ' ' $.V., k J :.] { L ",
"V -.{ ] T ' ] >.G.3 i R Y P ' ] ' T ' R ' { ] t.m.: t R ' J K *.",
"I { ] K :.$.] { M.< 0 v ' r.Y J ' { [ $.9.K ' ,.w.: g J P :.` X.",
"z K J V V C D J p.< 0 V F V v s C J J J V V F K w.; y c v l I x ",
"# ; * * # * * * 4 O # - * @ * & * * * * # * * * 2 o @ * * @ * # "
};
